<svg width="12" height="10" viewBox="0 0 12 10" fill="none" xmlns="http://www.w3.org/2000/svg">
<path d="M2.33748 0.5C1.86009 0.5 1.40225 0.689642 1.06468 1.02721C0.727118 1.36477 0.537476 1.82261 0.537476 2.3V2.4809L5.93748 5.3888L11.3375 2.4818V2.3C11.3375 1.82261 11.1478 1.36477 10.8103 1.02721C10.4727 0.689642 10.0149 0.5 9.53747 0.5H2.33748ZM11.3375 3.5033L6.15078 6.296C6.08522 6.33129 6.01193 6.34976 5.93748 6.34976C5.86302 6.34976 5.78973 6.33129 5.72417 6.296L0.537476 3.5033V7.7C0.537476 8.17739 0.727118 8.63523 1.06468 8.97279C1.40225 9.31036 1.86009 9.5 2.33748 9.5H9.53747C10.0149 9.5 10.4727 9.31036 10.8103 8.97279C11.1478 8.63523 11.3375 8.17739 11.3375 7.7V3.5033Z" fill="#8A1722"/>
</svg>
