<svg width="28" height="18" viewBox="0 0 28 18" fill="none" xmlns="http://www.w3.org/2000/svg">
<path fill-rule="evenodd" clip-rule="evenodd" d="M0.875032 9.00021C0.875032 8.75157 0.973803 8.51311 1.14962 8.3373C1.32543 8.16148 1.56389 8.06271 1.81253 8.06271H23.9244L18.0238 2.16396C17.9366 2.07679 17.8675 1.97331 17.8203 1.85943C17.7731 1.74554 17.7488 1.62348 17.7488 1.50021C17.7488 1.37694 17.7731 1.25488 17.8203 1.14099C17.8675 1.0271 17.9366 0.923622 18.0238 0.836457C18.1109 0.749293 18.2144 0.68015 18.3283 0.632977C18.4422 0.585803 18.5643 0.561523 18.6875 0.561523C18.8108 0.561523 18.9329 0.585803 19.0468 0.632977C19.1606 0.68015 19.2641 0.749293 19.3513 0.836457L26.8513 8.33646C26.9386 8.42354 27.0079 8.527 27.0551 8.64089C27.1024 8.75479 27.1267 8.87689 27.1267 9.00021C27.1267 9.12352 27.1024 9.24562 27.0551 9.35952C27.0079 9.47342 26.9386 9.57687 26.8513 9.66396L19.3513 17.164C19.2641 17.2511 19.1606 17.3203 19.0468 17.3674C18.9329 17.4146 18.8108 17.4389 18.6875 17.4389C18.5643 17.4389 18.4422 17.4146 18.3283 17.3674C18.2144 17.3203 18.1109 17.2511 18.0238 17.164C17.9366 17.0768 17.8675 16.9733 17.8203 16.8594C17.7731 16.7455 17.7488 16.6235 17.7488 16.5002C17.7488 16.3769 17.7731 16.2549 17.8203 16.141C17.8675 16.0271 17.9366 15.9236 18.0238 15.8365L23.9244 9.93771H1.81253C1.56389 9.93771 1.32543 9.83894 1.14962 9.66312C0.973803 9.4873 0.875032 9.24885 0.875032 9.00021Z" fill="#8A1722"/>
</svg>
