<svg width="12" height="12" viewBox="0 0 12 12" fill="none" xmlns="http://www.w3.org/2000/svg">
<path d="M1.4549 2.47711L2.78615 1.14711C2.88006 1.05279 2.99168 0.977952 3.11459 0.926897C3.23751 0.875843 3.3693 0.849577 3.5024 0.849609C3.77365 0.849609 4.02865 0.955859 4.2199 1.14711L5.6524 2.57961C5.74672 2.67352 5.82156 2.78514 5.87261 2.90805C5.92367 3.03097 5.94993 3.16276 5.9499 3.29586C5.9499 3.56711 5.84365 3.82211 5.6524 4.01336L4.6049 5.06086C4.8501 5.60131 5.191 6.09297 5.61115 6.51211C6.03025 6.93328 6.52187 7.27542 7.0624 7.52211L8.1099 6.47461C8.20381 6.38029 8.31543 6.30545 8.43834 6.2544C8.56126 6.20334 8.69305 6.17708 8.82615 6.17711C9.0974 6.17711 9.3524 6.28336 9.54365 6.47461L10.9774 7.90586C11.0718 7.99994 11.1467 8.11177 11.1978 8.2349C11.2489 8.35804 11.2751 8.49006 11.2749 8.62336C11.2749 8.89461 11.1687 9.14961 10.9774 9.34086L9.64865 10.6696C9.34365 10.9759 8.9224 11.1496 8.4899 11.1496C8.39865 11.1496 8.31115 11.1421 8.2249 11.1271C6.5399 10.8496 4.86865 9.95336 3.5199 8.60586C2.1724 7.25961 1.2774 5.58961 0.996151 3.89961C0.911151 3.38336 1.0824 2.85211 1.4549 2.47711Z" fill="#8A1722"/>
</svg>
