<svg width="28" height="18" viewBox="0 0 28 18" fill="none" xmlns="http://www.w3.org/2000/svg">
<path fill-rule="evenodd" clip-rule="evenodd" d="M27.125 9.00021C27.125 8.75157 27.0262 8.51311 26.8504 8.3373C26.6746 8.16148 26.4361 8.06271 26.1875 8.06271H4.07559L9.97622 2.16396C10.0634 2.07679 10.1325 1.97331 10.1797 1.85943C10.2269 1.74554 10.2512 1.62348 10.2512 1.50021C10.2512 1.37694 10.2269 1.25488 10.1797 1.14099C10.1325 1.0271 10.0634 0.923622 9.97622 0.836457C9.88905 0.749293 9.78557 0.68015 9.67169 0.632977C9.5578 0.585803 9.43574 0.561523 9.31247 0.561523C9.1892 0.561523 9.06713 0.585803 8.95325 0.632977C8.83936 0.68015 8.73588 0.749293 8.64872 0.836457L1.14872 8.33646C1.06141 8.42354 0.992143 8.527 0.944881 8.64089C0.897619 8.75479 0.873291 8.87689 0.873291 9.00021C0.873291 9.12352 0.897619 9.24562 0.944881 9.35952C0.992143 9.47342 1.06141 9.57687 1.14872 9.66396L8.64872 17.164C8.73588 17.2511 8.83936 17.3203 8.95325 17.3674C9.06713 17.4146 9.1892 17.4389 9.31247 17.4389C9.43574 17.4389 9.5578 17.4146 9.67169 17.3674C9.78557 17.3203 9.88905 17.2511 9.97622 17.164C10.0634 17.0768 10.1325 16.9733 10.1797 16.8594C10.2269 16.7455 10.2512 16.6235 10.2512 16.5002C10.2512 16.3769 10.2269 16.2549 10.1797 16.141C10.1325 16.0271 10.0634 15.9236 9.97622 15.8365L4.07559 9.93771H26.1875C26.4361 9.93771 26.6746 9.83894 26.8504 9.66312C27.0262 9.4873 27.125 9.24885 27.125 9.00021Z" fill="#8A1722"/>
</svg>
